<svg id="mellemgrund" xmlns="http://www.w3.org/2000/svg" xmlns:xlink="http://www.w3.org/1999/xlink" width="1460.4" height="754.4" viewBox="0 0 1460.4 754.4">
  <defs>
    <style>
      .cls-1 {
        fill: #a56b2d;
      }

      .cls-2 {
        fill: #1b2d0f;
      }

      .cls-3 {
        fill: #81a56a;
      }

      .cls-4 {
        fill: #af754a;
      }

      .cls-5 {
        fill: #c98b61;
      }

      .cls-6 {
        fill: #efc79c;
      }

      .cls-7 {
        fill: #4c7f25;
      }

      .cls-8 {
        fill: #3e8e1a;
      }

      .cls-9 {
        fill: #4e9348;
      }

      .cls-10 {
        fill: #4e7237;
      }

      .cls-11 {
        fill: #fff;
      }

      .cls-12 {
        fill: #42823b;
      }

      .cls-13 {
        fill: #493123;
      }

      .cls-14 {
        fill: #fffefd;
      }

      .cls-15 {
        fill: #e5e1df;
      }

      .cls-16 {
        fill: #d3aa9b;
      }

      .cls-17 {
        fill: none;
        stroke: #917250;
        stroke-miterlimit: 10;
      }

      .cls-18 {
        fill: #2e1fa0;
      }

      .cls-19 {
        fill: #9b9194;
      }

      .cls-20 {
        fill: #cc7a96;
      }

      .cls-21 {
        fill: #479c9e;
      }

      .cls-22 {
        fill: #9aaf8e;
      }

      .cls-23 {
        fill: #97d1bb;
      }

      .cls-24, .cls-25, .cls-26, .cls-32, .cls-34, .cls-35, .cls-36, .cls-38, .cls-39 {
        isolation: isolate;
      }

      .cls-24, .cls-25 {
        font-size: 4.35px;
      }

      .cls-24, .cls-32 {
        font-family: Arial-BoldMT, Arial;
        font-weight: 700;
      }

      .cls-25 {
        font-family: ArialMT, Arial;
      }

      .cls-27 {
        fill: #e6ed51;
      }

      .cls-28 {
        fill: #fffc88;
      }

      .cls-29 {
        fill: #e29169;
      }

      .cls-30 {
        fill: #8ebfe8;
      }

      .cls-31 {
        fill: #d6b2db;
      }

      .cls-32 {
        font-size: 3.26px;
      }

      .cls-33 {
        fill: #173506;
      }

      .cls-34, .cls-35, .cls-36 {
        font-size: 29.66px;
        font-family: Roboto-Black, Roboto;
      }

      .cls-34 {
        letter-spacing: -0.03em;
      }

      .cls-35 {
        letter-spacing: -0.07em;
      }

      .cls-37 {
        fill: #3d2d1c;
      }

      .cls-38 {
        font-size: 18.54px;
      }

      .cls-38, .cls-39 {
        font-family: Roboto-Regular, Roboto;
      }

      .cls-39 {
        font-size: 26.24px;
      }
    </style>
  </defs>
  <title>Baggrund_mellemgrund</title>
  <path class="cls-1" d="M-.3,337.1s28.7-30,42.8-27.2,37.5-16,37.5-16,24.3-17.8,58.1-12.2,50.5,12.2,50.5,12.2,40.3,30,52.5,30.9c0,0,16,9.4,119.9,20.6,0,0,41.2-2.8,66.5,21.5,0,0,20.6,20.6,74,8.4,0,0,23.4-8.5,111.4-45.4l53.4-22s71.2-31.8,108.6-17.8c0,0,61.8,16,80.5,16.9,0,0,16.9,1.9,111.4,35.6,0,0,54.3,18.7,100.2,5.6l42.2-7.5s30.9-11.2,62.7,2.8,61.8,30,61.8,30l9.6,427.4H-.3Z"/>
  <path class="cls-2" d="M743.7,291.7s-4.3-9.3-13.6-8.5c0,0,7.6-3.1,13.6-.1,0,0-2.1-5.5-6.8-6.3,0,0,8.9.4,10.6,3,0,0-3.4-9.3-8.7-10.6,0,0,7-2.1,10.8,6,0,0,4.3-6.8,7.7-6.2,0,0-3.8,6.2-3,8.7,0,0,7.6-5.9,12.7-5.9,0,0-9.8,3.8-9.8,12.7,0,0,5.9-6.3,9.8-4.2,0,0-8.1,4.2-10.2,11.4Z"/>
  <path class="cls-3" d="M717.5,313.3s-6.1-13.3-19.4-12.1c0,0,10.9-4.4,19.4-.1,0,0-3-7.8-9.7-9,0,0,12.7.6,15.2,4.2,0,0-4.8-13.3-12.4-15.2,0,0,10-3,15.5,8.5,0,0,6.1-9.8,10.9-8.9,0,0-5.5,8.9-4.2,12.5,0,0,10.9-8.5,18.3-8.5,0,0-14,5.5-14,18.2,0,0,8.5-8.9,14-6,0,0-11.5,6-14.6,16.3h-19Z"/>
  <path class="cls-3" d="M112.1,340V305.5h-7.2s-4.3-.6-6.6-3.2a12.3,12.3,0,0,1-2.6-6.6V280.2s-.6-5.7,3.7-5.7,4.4,5.7,4.4,5.7v14.1s1.6,5.8,8.2,3.2V243.4s-.9-6.9,3.7-6.9c0,0,6.3-1.4,6.3,7.2V280s5.2,0,5.5-11.5V255.3s-.3-7.2,4.9-7.2a5.44,5.44,0,0,1,5.7,4.6v27.9s.6,10.7-15.3,9.2l.3,50.4Z"/>
  <path class="cls-4" d="M.3,437.8S22,410.2,37.9,410.2c0,0,53.5-16,88.2-36.5,0,0,54.3-28.5,104.2,0s90.9,41,90.9,41,57.9,24.9,112.2,23.2a145.25,145.25,0,0,1,57,8s36.5,16.9,73-6.2c0,0,64.1-34.3,89.1-33.2,0,0,58.8-14.5,89.1,0l80.2,29.7s37.4,17.8,90.9,5.4l156.8-35,122.9-21.1a133.78,133.78,0,0,0,63.3-24.3s34.7-22.1,57-19.4c0,0,41-4.5,65,3.6,0,0,73,16,80.6,14.3s.1,441,.1,441H.3Z"/>
  <path class="cls-5" d="M.3,519.9l133.8,8.6,98-38.4s42.3-23.1,63.4-16.3c0,0,63.4,0,74.9-5.8l173.9,60.5s8.6,8.6,51.9,0c0,0,123-30.7,154.7-21.1,0,0,26-7.7,51.9,1l139.3,37.5s49,20.2,94.2-9.6l85.6-58.6s36.5-26.9,91.3-9.6l83.6,26.9s53.8,18.3,85.6-8.6c0,0,39.1-38.4,78.2-20.2l.1,334.3H2.2Z"/>
  <path class="cls-6" d="M-38.5,651.4s63.3-50.5,75.9-48.9c0,0,52.1-26.9,101,0l123.1,58.4s45.7,14.2,85.2,0l94.7-32,59.9-21.7s64.7-20.5,107.2-1.6l47.3,14.2s28.4,9.5,64.7-3.1L776,602.5l94.4,26.4,50.5,21s20.5,23.7,77.3-14.2c0,0,74.1-50.7,85.2-45.1,0,0,23.7-13,74.1,38.1,0,0,45.7,55.9,72.6,54.3,0,0,31.6,6.3,63.1-34.7,0,0,18.9-33.1,47.3-28.4,0,0,66.3-39.4,104.1,9.5,0,0,59.9,91.5,97.8,80.5l45.8.9.1,89.8H-36.3Z"/>
  <path class="cls-7" d="M179.8,517s-17.6-38.7-56.3-35.2c0,0,31.7-12.8,56.3-.2,0,0-8.8-22.7-28.2-26.2,0,0,37,1.8,44,12.3,0,0-14.1-38.7-36.1-44,0,0,29-8.8,44.9,24.6,0,0,17.6-28.5,31.7-25.7,0,0-15.8,25.7-12.3,36.3,0,0,31.7-24.6,52.8-24.6,0,0-40.5,15.8-40.5,52.8,0,0,24.6-25.9,40.5-17.3,0,0-33.4,17.3-42.2,47.3Z"/>
  <path class="cls-8" d="M1356.9,353.3s-10.5-23.2-33.7-21c0,0,18.9-7.6,33.7-.1,0,0-5.3-13.5-16.8-15.7,0,0,22.1,1,26.3,7.4,0,0-8.4-23.2-21.6-26.3,0,0,17.4-5.3,26.8,14.7,0,0,10.5-17,18.9-15.4,0,0-9.5,15.4-7.4,21.7,0,0,18.9-14.7,31.6-14.7,0,0-24.2,9.5-24.2,31.6,0,0,14.7-15.5,24.2-10.4,0,0-20,10.4-25.3,28.3Z"/>
  <path class="cls-9" d="M969.5,352.4V299.6s-11.9,2.1-14.5-3.1c0,0-2.1,1.6-2.6-6.2V267s-1.6-9.8,4.1-9.8,6.7,3.6,6.7,3.6v21.8s1,7.2,6.2,6.7V257.2s-1.6-12.4,5.2-12.4c0,0,6.2-.5,6.2,14v46.6s5.7,1,6.2-10.4c0,0-1.6-10.9,4.7-10.9s5.7,6.7,5.7,6.7v17.1s-1.6,8.3-8.8,8.8h-7.2v35.7Z"/>
  <path class="cls-10" d="M1199.3,469.8V457.6h-31.8s-16.7,2-17.1-15.5v-24s-1.2-13.4,6.9-13.4c0,0,9.4-2.4,9.8,15.1l.4,11s-1.2,11.4,15.1,9.4l16.7-.4V397s-17.9,1.6-22-5.3c0,0-4.9-3.3-4.9-16.7l-.4-45.2s-2-12.6,8.6-12.6,9.8,9,9.8,9v44.4s.8,10.2,9,9V348s-1.6-13,8.6-13,9.8,9.8,9.8,9.8v55s9.8,2,9.8-9.8V377.8s-1.2-10.2,7.3-10.2,9,5.7,9,5.7v30.9s0,14.7-14.7,14.7h-11l-.4,71.7h-18.3Z"/>
  <path class="cls-11" d="M202.2,392S80.1,422.8.3,392v45.6s83,38.5,201.8-.1Z"/>
  <path class="cls-12" d="M354.3,555.8V457.2s-22.2,3.9-27.1-5.8c0,0-3.9,2.9-4.8-11.6V396.3s-2.9-18.4,7.7-18.4,12.5,6.8,12.5,6.8v40.6s1.9,13.5,11.6,12.5V377.9s-2.9-23.2,9.7-23.2c0,0,11.6-1,11.6,26.1v87s10.6,1.9,11.6-19.3c0,0-2.9-20.3,8.7-20.3s10.6,12.5,10.6,12.5v31.9S403.5,488.1,390,489H376.5v66.7Z"/>
  <g>
    <g>
      <rect class="cls-13" x="478.3" y="443.9" width="288.1" height="288.1"/>
      <rect class="cls-13" x="596.3" y="371.6" width="260.7" height="289.7"/>
      <polygon class="cls-13" points="766.3 732 857 661.1 766.3 661.1 766.3 732"/>
      <polygon class="cls-13" points="596.3 371.2 596.1 443.9 478.3 443.9 596.3 371.2"/>
    </g>
    <rect class="cls-14" x="490" y="457.1" width="262.8" height="125"/>
    <g>
      <ellipse class="cls-15" cx="529.9" cy="562" rx="11.4" ry="20"/>
      <rect class="cls-15" x="518.5" y="562" width="22.8" height="20"/>
    </g>
    <rect class="cls-16" x="576.1" y="471.2" width="164.1" height="56.5"/>
    <rect class="cls-17" x="580.4" y="475.5" width="154.3" height="47.8"/>
    <rect class="cls-11" x="584.8" y="478.8" width="28.3" height="40.2"/>
    <rect class="cls-11" x="620.6" y="478.8" width="42.4" height="20.6"/>
    <rect class="cls-11" x="671.7" y="478.8" width="59.8" height="41.3"/>
    <rect class="cls-11" x="642.4" y="506" width="25" height="14.1"/>
    <rect class="cls-11" x="617.4" y="504.9" width="12" height="15.2"/>
    <g>
      <path class="cls-18" d="M622.8,555.7s30.6-31.7,59.7,0c0,0,4.9,14.2,0,26.3H622.8S618.7,566.5,622.8,555.7Z"/>
      <ellipse class="cls-18" cx="653.1" cy="535.8" rx="18.4" ry="17.9"/>
    </g>
    <rect class="cls-19" x="586.9" y="481" width="23.9" height="15.2"/>
    <rect class="cls-20" x="623.9" y="481" width="16.3" height="16.3"/>
    <rect class="cls-21" x="644.5" y="481" width="16.3" height="16.3"/>
    <rect class="cls-22" x="673.9" y="481" width="55.4" height="30.4"/>
    <rect class="cls-23" x="618.5" y="506" width="9.8" height="9.8"/>
    <text class="cls-24" transform="translate(587.37 501.67)">Most </text>
    <text class="cls-24" transform="translate(587.37 508.19)">wanted:</text>
    <text class="cls-25" transform="translate(603.79 508.19)"> </text>
    <text class="cls-25" transform="translate(587.37 514.71)">Cecilie Wig</text>
    <g>
      <g>
        <image class="cls-26" width="130" height="130" transform="translate(578.65 416) scale(1.13)" xlink:href="KEA/1. Semester/Grundlæggende Animation/02.01 Storytelling, karakterdesign og scenografi/Baggrundsdesign/789CDFE74DCFB573.png"/>
        <circle class="cls-27" cx="652.2" cy="489.4" r="4.4"/>
      </g>
      <path class="cls-28" d="M652.2,489.4V485a4.4,4.4,0,1,1,.4,8.8h-.4v-4.4Z"/>
      <polygon class="cls-27" points="652.3 483.1 651.5 484.5 653 484.5 652.3 483.1"/>
      <polygon class="cls-28" points="655.6 483.9 654.2 484.7 655.5 485.5 655.6 483.9"/>
      <polygon class="cls-27" points="646.6 492.5 648.2 492.5 647.5 491.1 646.6 492.5"/>
      <polygon class="cls-28" points="658.4 489.3 657 488.5 657 490.1 658.4 489.3"/>
      <polygon class="cls-27" points="657.7 486.3 656.1 486.3 656.8 487.7 657.7 486.3"/>
      <polygon class="cls-27" points="652.3 495.6 653 494.2 651.5 494.2 652.3 495.6"/>
      <polygon class="cls-28" points="646.1 489.3 647.4 490.1 647.4 488.5 646.1 489.3"/>
      <polygon class="cls-28" points="649 494.9 650.3 494.1 648.9 493.4 649 494.9"/>
      <polygon class="cls-28" points="655.5 494.9 655.6 493.4 654.2 494.1 655.5 494.9"/>
      <polygon class="cls-27" points="657.6 492.8 657 491.3 656.1 492.6 657.6 492.8"/>
      <polygon class="cls-28" points="649.3 483.9 649.3 485.5 650.6 484.7 649.3 483.9"/>
      <polygon class="cls-27" points="647 486.1 647.7 487.5 648.5 486.2 647 486.1"/>
    </g>
    <circle class="cls-29" cx="684.7" cy="494" r="8.7"/>
    <circle class="cls-30" cx="692.9" cy="501.1" r="3.8"/>
    <ellipse class="cls-31" cx="697.2" cy="486.9" rx="13.6" ry="2.7"/>
    <g>
      <path d="M592,490.5s6.6-6.8,12.9,0a9.25,9.25,0,0,1,0,5.7H592A11,11,0,0,1,592,490.5Z"/>
      <ellipse cx="598.6" cy="486.2" rx="4" ry="3.9"/>
    </g>
    <text class="cls-32" transform="translate(644.06 509.64)">Greetings </text>
    <text class="cls-32" transform="translate(644.06 513.99)">from Mexico</text>
    <path class="cls-33" d="M632.3,494.8v-1h-2.5a1.13,1.13,0,0,1-1.3-.9v-2.4s-.1-1.1.6-1.1c0,0,.7-.2.8,1.3v.9s-.1,1,1.1.8h1.3v-3.6s-1.4.1-1.7-.4c0,0-.4-.3-.4-1.4v-3.8s-.2-1,.7-1a.76.76,0,0,1,.8.6v3.8s.1.9.7.8v-2.6s-.1-1.1.7-1.1a.79.79,0,0,1,.8.8v4.7s.8.2.8-.8v-1s-.1-.8.6-.8.7.5.7.5v2.6a1.13,1.13,0,0,1-1.1,1.2h-1v6h-1.4Z"/>
  </g>
  <text class="cls-34" transform="translate(654.6 611.64)">A</text>
  <text class="cls-35" transform="translate(637.88 611.64)">P</text>
  <text class="cls-36" transform="translate(535.83 611.64)">ARDER </text>
  <text class="cls-36" transform="translate(515.65 611.64)">O</text>
  <text class="cls-36" transform="translate(496.52 611.64)">B</text>
  <text class="cls-36" transform="translate(673.07 611.64)">TROL</text>
  <rect class="cls-37" x="202.6" y="392" width="11.6" height="270.4"/>
  <rect class="cls-37" x="1286.3" y="406.9" width="11.6" height="270.4"/>
  <path class="cls-11" d="M1500.4,406.9s-122.1,30.8-201.9,0v45.6s83,38.5,201.8-.1Z"/>
  <text class="cls-38" transform="translate(17.41 433.64)">W</text>
  <text class="cls-38" transform="translate(33.57 433.64)">elcome </text>
  <text class="cls-38" transform="translate(98.85 433.64)">t</text>
  <text class="cls-38" transform="translate(104.72 433.64)">o Mexico</text>
  <text class="cls-39" transform="translate(1320.61 448.32)">US and A</text>
</svg>
