<svg id="forgrund" xmlns="http://www.w3.org/2000/svg" xmlns:xlink="http://www.w3.org/1999/xlink" width="1460.4" height="754.4" viewBox="0 0 1460.4 754.4">
  <defs>
    <style>
      .cls-1 {
        fill: none;
      }

      .cls-2 {
        clip-path: url(#clip-path);
      }

      .cls-3 {
        fill: #81a56a;
      }

      .cls-4 {
        fill: #173506;
      }

      .cls-5 {
        fill: #fff;
      }

      .cls-6 {
        fill: #1b2d0f;
      }
    </style>
    <clipPath id="clip-path">
      <rect class="cls-1" x="0.3" y="-20.9" width="1460.1" height="822.5"/>
    </clipPath>
  </defs>
  <title>Baggrund_forgrund</title>
  <g class="cls-2">
    <g>
      <path class="cls-3" d="M1427.6,826V680.7h-30.3s-18.2-2.4-27.8-13.3-10.9-27.8-10.9-27.8V574.2s-2.4-24.2,15.7-24.2,18.7,24.2,18.7,24.2v59.3s6.7,24.2,34.6,13.3V419.2s-3.6-29.1,15.7-29.1c0,0,26.6-6,26.6,30.3V573s21.8,0,23-48.4V468.9s-1.2-30.3,20.5-30.3,24.2,19.4,24.2,19.4V575.4s2.4,44.8-64.2,38.8l1.2,211.9Z"/>
      <path class="cls-4" d="M32.4,761.2V737.9H-28.2s-31.9,3.9-32.7-29.5V662.5s-2.3-25.7,13.2-25.7c0,0,17.9-4.7,18.7,28.8l.8,21S-30.5,708.4.6,704.5l31.9-.8V622s-34.2,3.1-42-10.1c0,0-9.3-6.2-9.3-31.9l-.8-86.3s-3.9-24,16.3-24,18.7,17.1,18.7,17.1v84.7s1.6,19.4,17.1,17.1V528.7s-3.1-24.9,16.3-24.9,18.7,18.7,18.7,18.7V627.4s18.7,3.9,18.7-18.7V585.4s-2.3-19.4,14-19.4,17.1,10.9,17.1,10.9V636s0,28-28,28h-21l-.8,136.9h-35V761.2Z"/>
      <path class="cls-5" d="M201.3,13.8S177.5-33.8,115.1,1.9c0,0-20.8-41.6-59.5-5.9,0,0-21.5-40.2-56.8-13.7C-2,34.3.3,86.6-.2,138.7c16,1.2,34.7-3.7,55.7-20.9,0,0,77.3,26.8,68.4-23.8,0,0,41.6,20.8,77.3-17.8C201.3,76.2,216.2,67.3,201.3,13.8Z"/>
      <path class="cls-5" d="M1327,29.5s-43.2-8.5-43.2,42.4c0,0-35.4,29.7,7.8,46.7,0,0,39.2,59.4,78.5,0,0,0,7.8,25.5,43.2,4.2,0,0,23.5,29.7,62.7,0,0,0,35.4,8.5,35.4-21.2,0,0,39.2-17,0-42.4,0,0,19.6-33.9-23.5-29.7,0,0-31.4-46.7-58.9,0,0,0-35.4-25.5-47.1,0C1382,29.5,1346.7-12.9,1327,29.5Z"/>
      <path class="cls-6" d="M1088.4,814.1s-31.8-69.9-101.7-63.5c0,0,57.2-23.1,101.7-.4,0,0-15.9-40.9-50.8-47.2,0,0,66.7,3.2,79.4,22.2,0,0-25.4-69.9-65.1-79.4,0,0,52.4-15.9,81,44.5,0,0,31.8-51.4,57.2-46.4,0,0-28.6,46.4-22.2,65.4,0,0,57.2-44.5,95.3-44.5,0,0-73,28.6-73,95.3,0,0,44.5-46.7,73-31.3,0,0-60.4,31.3-76.2,85.3Z"/>
    </g>
  </g>
</svg>
