<svg id="baggrund" xmlns="http://www.w3.org/2000/svg" xmlns:xlink="http://www.w3.org/1999/xlink" width="1460.4" height="754.4" viewBox="0 0 1460.4 754.4">
  <defs>
    <style>
      .cls-1 {
        fill: #87cefa;
      }

      .cls-2 {
        isolation: isolate;
      }

      .cls-3 {
        fill: #e6ed51;
      }

      .cls-4 {
        fill: #fffc88;
      }

      .cls-5 {
        fill: #efc79c;
      }

      .cls-6 {
        fill: #fff;
      }
    </style>
  </defs>
  <title>Baggrund_baggrund</title>
  <g>
    <rect class="cls-1" x="0.9" y="-20.3" width="1459" height="820.2"/>
    <path d="M1459.3-19.8v819H1.4v-819H1459.3m1.1-1.1H.3V800.4H1460.4Z"/>
  </g>
  <g>
    <g>
      <image class="cls-2" width="214" height="213" transform="translate(772.29 -34.3) scale(1.14)" xlink:href="KEA/1. Semester/Grundlæggende Animation/02.01 Storytelling, karakterdesign og scenografi/Baggrundsdesign/789CDFE74DCFB571.png"/>
      <circle class="cls-3" cx="894.1" cy="86.9" r="53"/>
    </g>
    <path class="cls-4" d="M894.1,86.9v-53a53,53,0,0,1,0,106Z"/>
    <polygon class="cls-3" points="894.4 11.8 885 28.1 903.8 28.1 894.4 11.8"/>
    <polygon class="cls-4" points="934.4 21.5 917.8 30.2 933.6 40.2 934.4 21.5"/>
    <polygon class="cls-3" points="826.5 124.6 845.5 125.3 836.7 108.7 826.5 124.6"/>
    <polygon class="cls-4" points="968.2 86.5 951.9 77.1 951.9 95.9 968.2 86.5"/>
    <polygon class="cls-3" points="960.1 50.6 941.3 49.8 950 66.5 960.1 50.6"/>
    <polygon class="cls-3" points="894.4 162.1 903.8 145.6 885 145.6 894.4 162.1"/>
    <polygon class="cls-4" points="819.8 86.5 836.1 95.9 836.1 77.1 819.8 86.5"/>
    <polygon class="cls-4" points="855.5 154.3 871.2 144 854.4 135.6 855.5 154.3"/>
    <polygon class="cls-4" points="933.8 154.2 934.6 135.5 918 144.2 933.8 154.2"/>
    <polygon class="cls-3" points="959.2 128.1 951.6 111 940.6 126.2 959.2 128.1"/>
    <polygon class="cls-4" points="858.3 21.2 858.3 40 874.6 30.6 858.3 21.2"/>
    <polygon class="cls-3" points="830.5 47.6 839.1 64.3 849.2 48.5 830.5 47.6"/>
  </g>
  <path class="cls-5" d="M1.1,214.5s24.8,5.5,24-31.2V94.2s.9-7.3,6.4-9.2,19.3-7.3,19.3-7.3,15.6-8.3,14.7,10.1S81,101.5,81,101.5s10.1-5.5,12,8.3a115,115,0,0,1,0,27.5s-2.2,12.2,8.4,11.1h6.4s6.8,4.2,9.5-15.9V117.2L130,101.8a13.29,13.29,0,0,1,13.8-7.4s9.5-3.2,9.5,15.4V222.7s-1.6,12.7,10.6,11.7l10.6.1s11.7,1,10.6-12.3l.1-58.3,8.9-14.3s5.8-10.1,16.4-3.2l20.7,8.8h6.4s8-5.6,8.5,12.4v98.6s-3.2,23.9,19.1,21.2l9.5.2s6.4,2.5,6.4-21.4V247.6s1.6-10.1,8-7.4c0,0,2.7-.5,4.8,3.2,0,0,2.1,9.5,5.3,9.5h10.1s4.8,0,4.8,8.5V298l52.5,10.6s10.6,3.2,18,0l70-25.4V125s-1.1-12.2,6.8-14.8l11.7-5.3a27.7,27.7,0,0,1,12.3-3.8s5.8-2.6,23.3,5.8c0,0,6.8,3.7,9-10.6,0,0,2.1-18,8.5-13.8,0,0,10.1-2.1,11.1,16.4v85.4s-1.1,17.5,7.4,12.7l17-13.3s5.8,2.7,5.8-16.4V142.9s-2.1-13.3,11.1-5.8l12.7,7.4s10.1,1.1,7.4,22.3l.4,45.1V322.7s-2.6,20.1,17.1,8l358.7,11.8L1037,311s7.2,2.1,7.8-18.1v-77l17.5-20.7,7.2-5.2s10.3-10.3,16-1.5l7.8,7.2s4.7,1,3.6,26.9l.1,17.1s-.1,13.4,10.7,6.7l12.9-9.3V153.8s-.5-14,3.1-14.5c0,0,7.8-3.6,12.9,5.2,0,0,2.1,4.7,8.3,3.1,0,0,11.4-6.2,12.4,3.6v33.1s-3.6,32.6,10.3,27.4c0,0,11.4-4.5,16-2.5l12.9-9.9s5.2-4.7,8.8.5l7.7,6.7v30s22.7,31.5,21.7-4.1V188.5s-1.6-18.6,9.8-10.9c0,0,5.7,9.3,15.5,3.6,0,0,10.9-5.2,10.9,7.2,0,0-1,15,11.4,6.7,0,0,9.8-9.3,7.7,30.5l.3,46.5s-2.9,26.9,16.3,13.4l17.6-8.3s9.3,11.4,8.8-29.5V143.9s-.5-10.8,7.2-14.5l18.6-8.8s14-11.4,20.2,8.8c0,0,7.8,8.8,6.2,32.1l.2,42.9s.8,14.5,6,11.9c0,0,7.7,3.1,8.3-10.8V163.2l13.4-12.4,10.8-.5s6.7-3.1,11.9,13.4c0,0,6.2,6.7,11.4.5,0,0,6.8-7.8,11.9,11.9l.1,624.4H1.1Z"/>
  <path class="cls-6" d="M1173.9,130.5s-24.3,0-21.3,24.3c0,0-9.1,13.2,5.1,16.2,0,0,15.2,22.3,37.5,4,0,0,26.4,9.1,23.3-8.1,0,0,14.2,7.1,26.4-6.1,0,0,5.1-3,0-21.3,0,0-8.1-16.2-29.4-4.1,0,0-7.1-14.2-20.3-2C1195.2,133.5,1187.1,118.3,1173.9,130.5Z"/>
  <path class="cls-6" d="M683.1,167.4s-18.3,0-16,18.3c0,0-6.8,9.9,3.8,12.1,0,0,11.4,16.7,28.1,3,0,0,19.7,6.8,17.5-6.1,0,0,10.6,5.3,19.7-4.6,0,0,3.8-2.3,0-16,0,0-6.1-12.1-22-3,0,0-5.3-10.6-15.2-1.5C699,169.7,692.9,158.3,683.1,167.4Z"/>
  <path class="cls-6" d="M1101.9,12.6s-27.4,0-13.7,30c0,0-15.4,22,5.1,24,0,0,20.5,26,37.7,0,0,0,8.6,18,22.3,2,0,0,17.1,28.1,34.2,2,0,0,18.9,10,22.3-16,0,0,22.3-16,0-28,0,0,1.7-18-18.9-14,0,0-12-26-30.8,0,0,0-10.3-22-29.1,0C1131,12.6,1107-5.4,1101.9,12.6Z"/>
  <path class="cls-6" d="M533,109.1s-12.5-2.3-12.5,11.4c0,0-10.3,8,2.3,12.5,0,0,11.4,16,22.8,0,0,0,2.3,6.8,12.5,1.1,0,0,6.8,8,18.3,0,0,0,10.3,2.3,10.3-5.7,0,0,11.4-4.6,0-11.4,0,0,5.7-9.1-6.8-8,0,0-9.1-12.5-17.1,0,0,0-10.3-6.8-13.7,0C549,109.1,538.7,97.7,533,109.1Z"/>
  <path class="cls-6" d="M326.5,68.1s-18.3,0-9.1,17.1c0,0-10.3,12.5,3.4,13.7,0,0,13.7,14.8,25.1,0,0,0,5.7,10.3,14.8,1.1,0,0,11.4,16,22.8,1.1,0,0,12.5,5.7,14.8-9.1,0,0,14.8-9.1,0-16,0,0,1.1-10.3-12.5-8,0,0-8-14.8-20.5,0,0,0-6.8-12.5-19.4,0C345.9,68.1,330,57.8,326.5,68.1Z"/>
  <path class="cls-6" d="M240.7,138.3s-22.4-4.4-22.4,22c0,0-18.3,15.4,4.1,24.2,0,0,20.3,30.8,40.7,0,0,0,4.1,13.2,22.4,2.2,0,0,12.2,15.4,32.5,0,0,0,18.3,4.4,18.3-11,0,0,20.3-8.8,0-22,0,0,10.2-17.6-12.2-15.4,0,0-16.3-24.2-30.5,0,0,0-18.3-13.2-24.4,0C269.2,138.3,250.9,116.3,240.7,138.3Z"/>
</svg>
