<svg xmlns="http://www.w3.org/2000/svg" width="1749.5" height="2000.1" viewBox="0 0 1749.5 2000.1">
  <defs>
    <style>
      .cls-1 {
        fill: #191970;
      }

      .cls-2 {
        fill: #ffcd94;
      }

      .cls-3 {
        fill: #f9af6b;
      }

      .cls-4 {
        fill: #fff;
      }

      .cls-5 {
        fill: #f70d0d;
      }

      .cls-6 {
        fill: #f2da91;
      }

      .cls-7 {
        fill: #f9f9f9;
      }

      .cls-8 {
        fill: #67b7c9;
      }

      .cls-9 {
        fill: #d36683;
      }

      .cls-10 {
        fill: #e5c53c;
      }
    </style>
  </defs>
  <title>Trump_spritesheet_udenfarve</title>
  <g id="arme">
    <g>
      <g>
        <path class="cls-1" d="M239.33,1234.11l10.79-16.61s73.23-7.56,42.47-57.43l30.54-16.39,3.62,50.37s6.08,21.27-15.46,23.81Z"/>
        <g>
          <path class="cls-2" d="M282.19,1158.4s36.83,28.28,56.47-22.3c0,0-1.26-12.83-20.25-13.15,0,0-7.73-.73-4.42,3.75,0,0-13.31-9-13.52,3.54,0,0-14.8-8.94-11.47,6.21C289,1136.45,264.33,1132.56,282.19,1158.4Z"/>
          <polygon class="cls-3" points="295.06 1151.98 288.59 1136.45 289.3 1136.22 295.74 1151.93 295.06 1151.98"/>
          <polygon class="cls-3" points="306.51 1145.66 300.05 1130.13 300.76 1129.9 307.2 1145.62 306.51 1145.66"/>
          <polygon class="cls-3" points="321.66 1141.75 313.78 1126.74 314.46 1126.44 322.34 1141.64 321.66 1141.75"/>
        </g>
      </g>
      <g>
        <path class="cls-1" d="M123.1,1233.93,110,1217.33s-72.89-2.28-44.51-56.54l-33.12-15.1.57,55.84s-2.67,18.9,18,22.83Z"/>
        <g>
          <path class="cls-2" d="M84.46,1149.28s-39,42.31-58.6-14.58c0,0,10.39-22.31,23.92-11.72,0,0,8.44-8,13.07,2.91,0,0,13.59-10.65,14,6.11C76.85,1132,96.77,1129.41,84.46,1149.28Z"/>
          <polygon class="cls-3" points="46.13 1139.09 49.42 1122.76 50.18 1122.83 46.76 1139.32 46.13 1139.09"/>
          <polygon class="cls-3" points="58.32 1142.07 62.32 1125.83 63.07 1125.93 58.92 1142.32 58.32 1142.07"/>
          <polygon class="cls-3" points="68.26 1146.9 76.39 1131.87 77.06 1132.16 68.77 1147.31 68.26 1146.9"/>
        </g>
      </g>
      <path class="cls-1" d="M234.76,1365.1c1.65-3.54,14.65-32.47,16.65-65.6v-82.22s-95.6,10.52-141.82,0v86s2,31.22,16.3,61.78H234.76Z"/>
      <path class="cls-1" d="M125.88,1365.1v98.2s-23.2-5.46-31.74,7.51h50.47V1365.1Z"/>
      <path class="cls-1" d="M216,1365.1v98.2s-23.2-5.46-31.74,7.51h50.47V1365.1Z"/>
      <path class="cls-4" d="M168.82,1222l7.79,17.67s50.15-2.7,74.41-19.65l.38-2.69Z"/>
      <path class="cls-4" d="M154.92,1221.32l-10.11,17.61s-25.21-5.41-34.15-17l-1.08-5.37Z"/>
      <polyline class="cls-4" points="144.81 1238.93 144.65 1275.98 161.65 1286.68 176.61 1275.98 176.61 1239.62 168.82 1221.95 154.92 1221.32"/>
      <polygon class="cls-5" points="154.92 1221.32 147.32 1234.7 151.12 1239.62 147.32 1266.15 161.65 1286.68 160.63 1221.58 154.92 1221.32"/>
      <polygon class="cls-5" points="166.34 1221.34 174.36 1234.52 170.71 1239.54 175.33 1265.97 161.65 1286.85 160.65 1221.75 166.34 1221.34"/>
      <g>
        <polygon class="cls-6" points="262 1159.67 262 1151.64 251.02 1151.64 251.02 1193.37 262 1193.37 262 1159.67"/>
        <polygon class="cls-6" points="109.58 1160.87 109.58 1152.85 98.61 1152.85 98.61 1194.57 109.58 1194.57 109.58 1160.87"/>
        <ellipse class="cls-6" cx="115.66" cy="1118.35" rx="25.81" ry="23.49"/>
        <path class="cls-2" d="M109.58,1217.28v-56.41s-34.66-12.42,0-31.54v-31.54H251.41v32.5s41,13.39,0,27.25v59.75S169.46,1227.79,109.58,1217.28Z"/>
        <path class="cls-3" d="M109.23,1135.38s-11.83.85-10.52,11.79l2.82-.68s-2.25-6.67,7.7-9.06Z"/>
        <path class="cls-3" d="M264.23,1145.12s-.8-10.78-12.83-9.71l.72,2.57s7.35-2,9.86,7.12Z"/>
        <g>
          <ellipse cx="161.65" cy="1193.37" rx="19.07" ry="17.35"/>
          <g>
            <ellipse class="cls-7" cx="135.55" cy="1131.95" rx="11.34" ry="10.32"/>
            <ellipse class="cls-8" cx="135.55" cy="1132.15" rx="7.31" ry="6.65"/>
            <ellipse cx="135.55" cy="1132.15" rx="4.65" ry="4.23"/>
            <ellipse class="cls-4" cx="139.01" cy="1129" rx="1.19" ry="1.08"/>
          </g>
          <g>
            <ellipse class="cls-7" cx="191.25" cy="1131.95" rx="11.17" ry="10.17"/>
            <ellipse class="cls-8" cx="191.25" cy="1132.15" rx="7.2" ry="6.55"/>
            <ellipse cx="191.25" cy="1132.15" rx="4.58" ry="4.17"/>
            <ellipse class="cls-4" cx="194.66" cy="1129.04" rx="1.17" ry="1.06"/>
          </g>
          <path class="cls-3" d="M161.85,1145.14s-5.22-.6-6.26,5.26v7s-.87,7.29,6.26,7.61c0,0,6.1.47,7-7v-7.45S168.64,1144.94,161.85,1145.14Z"/>
          <path class="cls-6" d="M146.5,1113l-20.93-3.07s-6.89,2.25-1.16,6.55l20.93,3.07S152.66,1117.35,146.5,1113Z"/>
          <path class="cls-6" d="M199.75,1110l-20.86,2.84s-5.78,4,1.08,6.53l20.86-2.85S207,1112.48,199.75,1110Z"/>
          <path class="cls-9" d="M146.23,1203.55s16.34-8.42,30.84,0a17,17,0,0,1-7.13,5.43s-6,3.39-14.68.72A18.64,18.64,0,0,1,146.23,1203.55Z"/>
          <path class="cls-4" d="M144.65,1185.53h34s-4.2-9.35-17-9.51C161.65,1176,150.17,1175.54,144.65,1185.53Z"/>
        </g>
        <path class="cls-6" d="M239.15,1055.19H113.41s-25.63,5-23.26,25.49a29.92,29.92,0,0,0,20.41,25.49H243.9s26.58-1.3,22.07-27S239.15,1055.19,239.15,1055.19Z"/>
        <ellipse class="cls-6" cx="251.4" cy="1112.7" rx="21.37" ry="19.45"/>
      </g>
      <polygon points="109.58 1303.32 251.02 1303.32 249.97 1313.11 110.71 1313.11 109.58 1303.32"/>
      <rect class="cls-10" x="154.49" y="1303.32" width="13.5" height="9.79"/>
    </g>
    <g>
      <g>
        <path class="cls-1" d="M467.21,1247.23l-7.81-19.62s-69.22-22.91-26.59-66.87l-27.46-23.9L390,1190.54s-7.92,17.36,10.74,27Z"/>
        <g>
          <path class="cls-2" d="M454.23,1155.08s-49.41,29.49-52-30.63c0,0,16.31-18.44,26.27-4.44,0,0,10.38-5.32,11.7,6.5,0,0,16.06-6.34,11.69,9.85C451.85,1136.36,471.7,1139.53,454.23,1155.08Z"/>
          <polygon class="cls-3" points="420.38 1134.41 428.18 1119.7 428.88 1119.98 420.91 1134.81 420.38 1134.41"/>
          <polygon class="cls-3" points="431.21 1140.73 439.67 1126.31 440.36 1126.62 431.72 1141.15 431.21 1140.73"/>
          <polygon class="cls-3" points="439.38 1148.2 451.44 1136.09 452 1136.57 439.74 1148.73 439.38 1148.2"/>
        </g>
      </g>
      <g>
        <path class="cls-1" d="M594.22,1246.61l5.69-19s68.17-27.8,24.65-67l24.71-24.3,17.61,47.3s11.82,18.75-8.18,27.23Z"/>
        <g>
          <path class="cls-2" d="M614.11,1161.94s43.29,16.81,48-37.25c0,0-4.82-12-23.13-6.94,0,0-7.62,1.47-3.19,4.84,0,0-15.3-4.88-12,7.19,0,0-16.72-4.43-9.27,9.18C614.49,1139,589.7,1142.15,614.11,1161.94Z"/>
          <polygon class="cls-3" points="624.66 1152.16 614.1 1139.07 614.71 1138.65 625.3 1151.93 624.66 1152.16"/>
          <polygon class="cls-3" points="633.88 1142.89 623.32 1129.8 623.94 1129.37 634.53 1142.65 633.88 1142.89"/>
          <polygon class="cls-3" points="647.33 1134.88 635.55 1122.69 636.12 1122.21 647.94 1134.59 647.33 1134.88"/>
        </g>
      </g>
      <path class="cls-1" d="M584.05,1374.92c1.65-3.54,14.65-32.47,16.65-65.6V1227.1s-95.6,10.52-141.82,0v86s2,31.22,16.3,61.78H584.05Z"/>
      <path class="cls-1" d="M475.17,1374.92v98.2s-23.2-5.46-31.74,7.51H493.9V1374.92Z"/>
      <path class="cls-1" d="M565.27,1374.92v98.2s-23.2-5.46-31.74,7.51H584V1374.92Z"/>
      <path class="cls-4" d="M518.11,1231.77l7.79,17.67s50.15-2.7,74.41-19.65l.38-2.69Z"/>
      <path class="cls-4" d="M504.21,1231.14l-10.11,17.61s-25.21-5.41-34.15-17l-1.08-5.37Z"/>
      <polyline class="cls-4" points="494.1 1248.75 493.94 1285.8 510.94 1296.5 525.9 1285.8 525.9 1249.44 518.11 1231.77 504.21 1231.14"/>
      <polygon class="cls-5" points="504.21 1231.14 496.61 1244.52 500.41 1249.44 496.61 1275.97 510.94 1296.5 509.92 1231.4 504.21 1231.14"/>
      <polygon class="cls-5" points="515.63 1231.16 523.65 1244.34 520 1249.36 524.62 1275.79 510.94 1296.67 509.94 1231.57 515.63 1231.16"/>
      <g>
        <polygon class="cls-6" points="611.29 1169.49 611.29 1161.46 600.31 1161.46 600.31 1203.19 611.29 1203.19 611.29 1169.49"/>
        <polygon class="cls-6" points="458.87 1170.69 458.87 1162.67 447.9 1162.67 447.9 1204.39 458.87 1204.39 458.87 1170.69"/>
        <ellipse class="cls-6" cx="464.95" cy="1128.17" rx="25.81" ry="23.49"/>
        <path class="cls-2" d="M458.87,1227.1v-56.41s-34.66-12.42,0-31.54v-31.54H600.7v32.5s41,13.39,0,27.25v59.75S518.75,1237.61,458.87,1227.1Z"/>
        <path class="cls-3" d="M458.52,1145.2s-11.82.85-10.52,11.79l2.82-.68s-2.25-6.67,7.7-9.06Z"/>
        <path class="cls-3" d="M613.52,1154.94s-.8-10.78-12.83-9.71l.72,2.57s7.35-2,9.86,7.12Z"/>
        <g>
          <ellipse cx="510.94" cy="1203.19" rx="19.07" ry="17.35"/>
          <g>
            <ellipse class="cls-7" cx="484.84" cy="1141.77" rx="11.34" ry="10.32"/>
            <ellipse class="cls-8" cx="484.84" cy="1141.97" rx="7.31" ry="6.65"/>
            <ellipse cx="484.84" cy="1141.97" rx="4.65" ry="4.23"/>
            <ellipse class="cls-4" cx="488.3" cy="1138.82" rx="1.19" ry="1.08"/>
          </g>
          <g>
            <ellipse class="cls-7" cx="540.54" cy="1141.77" rx="11.17" ry="10.17"/>
            <ellipse class="cls-8" cx="540.54" cy="1141.97" rx="7.2" ry="6.55"/>
            <ellipse cx="540.54" cy="1141.97" rx="4.58" ry="4.17"/>
            <ellipse class="cls-4" cx="543.95" cy="1138.86" rx="1.17" ry="1.06"/>
          </g>
          <path class="cls-3" d="M511.14,1155s-5.22-.6-6.26,5.26v7s-.87,7.29,6.26,7.61c0,0,6.1.47,7-7v-7.45S517.93,1154.76,511.14,1155Z"/>
          <path class="cls-6" d="M495.79,1122.8l-20.93-3.07s-6.89,2.25-1.16,6.55l20.93,3.07S502,1127.17,495.79,1122.8Z"/>
          <path class="cls-6" d="M549,1119.86l-20.86,2.84s-5.78,4,1.08,6.53l20.86-2.85S556.33,1122.3,549,1119.86Z"/>
          <path class="cls-9" d="M495.52,1213.37s16.34-8.42,30.84,0a17,17,0,0,1-7.13,5.43s-6,3.39-14.68.72A18.77,18.77,0,0,1,495.52,1213.37Z"/>
          <path class="cls-4" d="M493.94,1195.35h34s-4.2-9.35-17-9.51C510.94,1185.84,499.46,1185.36,493.94,1195.35Z"/>
        </g>
        <path class="cls-6" d="M588.44,1065H462.7s-25.63,5-23.26,25.49A30,30,0,0,0,459.85,1116H593.19s26.58-1.3,22.07-27S588.44,1065,588.44,1065Z"/>
        <ellipse class="cls-6" cx="600.69" cy="1122.52" rx="21.37" ry="19.45"/>
      </g>
      <polygon points="458.87 1313.14 600.31 1313.14 599.26 1322.93 460 1322.93 458.87 1313.14"/>
      <rect class="cls-10" x="503.78" y="1313.14" width="13.5" height="9.79"/>
    </g>
  </g>
  <g id="humør">
    <g>
      <path class="cls-1" d="M234.14,1874.21c1.65-3.54,14.65-32.47,16.65-65.6v-82.22s-95.6,10.52-141.82,0v86s2,31.22,16.3,61.78H234.14Z"/>
      <path class="cls-1" d="M125.26,1874.21v98.2s-23.2-5.46-31.74,7.51H144V1874.21Z"/>
      <path class="cls-1" d="M215.36,1874.21v98.2s-23.2-5.46-31.74,7.51h50.47V1874.21Z"/>
      <path class="cls-4" d="M168.2,1731.06l7.79,17.67s50.15-2.7,74.41-19.65l.38-2.69Z"/>
      <path class="cls-4" d="M154.3,1730.43,144.19,1748S119,1742.63,110,1731l-1.08-5.37Z"/>
      <polyline class="cls-4" points="144.19 1748.04 144.03 1785.09 161.03 1795.79 175.99 1785.09 175.99 1748.73 168.2 1731.06 154.3 1730.43"/>
      <polygon class="cls-5" points="154.3 1730.43 146.7 1743.81 150.5 1748.73 146.7 1775.26 161.03 1795.79 160.01 1730.69 154.3 1730.43"/>
      <polygon class="cls-5" points="165.72 1730.45 173.74 1743.63 170.09 1748.65 174.71 1775.08 161.03 1795.96 160.03 1730.86 165.72 1730.45"/>
      <polygon class="cls-6" points="261.38 1668.78 261.38 1660.75 250.4 1660.75 250.4 1702.48 261.38 1702.48 261.38 1668.78"/>
      <polygon class="cls-6" points="108.96 1669.98 108.96 1661.96 97.99 1661.96 97.99 1703.68 108.96 1703.68 108.96 1669.98"/>
      <ellipse class="cls-6" cx="115.04" cy="1627.46" rx="25.81" ry="23.49"/>
      <path class="cls-2" d="M109,1726.39V1670s-34.66-12.42,0-31.54V1606.9H250.79v32.5s41,13.39,0,27.25v59.75S168.84,1736.9,109,1726.39Z"/>
      <path class="cls-3" d="M108.61,1644.49s-11.83.85-10.52,11.79l2.82-.68s-2.25-6.67,7.7-9.06Z"/>
      <path class="cls-3" d="M263.61,1654.23s-.8-10.78-12.83-9.71l.72,2.57s7.35-2,9.86,7.12Z"/>
      <g>
        <ellipse class="cls-7" cx="134.93" cy="1641.06" rx="11.34" ry="10.32"/>
        <ellipse class="cls-8" cx="134.93" cy="1641.26" rx="7.31" ry="6.65"/>
        <ellipse cx="134.93" cy="1641.26" rx="4.65" ry="4.23"/>
        <ellipse class="cls-4" cx="138.39" cy="1638.11" rx="1.19" ry="1.08"/>
      </g>
      <g>
        <ellipse class="cls-7" cx="190.63" cy="1641.06" rx="11.17" ry="10.17"/>
        <ellipse class="cls-8" cx="190.63" cy="1641.26" rx="7.2" ry="6.55"/>
        <ellipse cx="190.63" cy="1641.26" rx="4.58" ry="4.17"/>
        <ellipse class="cls-4" cx="194.04" cy="1638.15" rx="1.17" ry="1.06"/>
      </g>
      <path class="cls-3" d="M161.23,1654.25s-5.22-.6-6.26,5.26v7s-.87,7.29,6.26,7.61c0,0,6.1.47,7-7v-7.45S168,1654.05,161.23,1654.25Z"/>
      <path class="cls-6" d="M145.88,1622.09,125,1619s-6.89,2.25-1.16,6.55l20.93,3.07S152,1626.46,145.88,1622.09Z"/>
      <path class="cls-6" d="M199.13,1619.15,178.27,1622s-5.78,4,1.08,6.53l20.86-2.85S206.42,1621.59,199.13,1619.15Z"/>
      <g>
        <ellipse cx="161.88" cy="1702.08" rx="12.91" ry="11.75"/>
        <path class="cls-9" d="M151.44,1709s11.06-5.7,20.88,0a11.58,11.58,0,0,1-4.83,3.67,13.31,13.31,0,0,1-9.94.49A12.69,12.69,0,0,1,151.44,1709Z"/>
        <path class="cls-4" d="M150.36,1696.77h23s-2.84-6.33-11.51-6.44C161.88,1690.33,154.1,1690,150.36,1696.77Z"/>
      </g>
      <path class="cls-6" d="M238.53,1564.3H112.79s-25.63,5-23.26,25.49a29.94,29.94,0,0,0,20.41,25.49H243.28s26.58-1.3,22.07-27S238.53,1564.3,238.53,1564.3Z"/>
      <ellipse class="cls-6" cx="250.78" cy="1621.81" rx="21.37" ry="19.45"/>
      <polygon points="108.96 1812.43 250.4 1812.43 249.35 1822.22 110.09 1822.22 108.96 1812.43"/>
      <rect class="cls-10" x="153.87" y="1812.43" width="13.5" height="9.79"/>
      <g>
        <path class="cls-1" d="M109.29,1726.39v19.8s-57.31,46.22-4.36,71.31l-16.68,30.4-30.46-40.31s-16.68-14.52,0-28.39Z"/>
        <g>
          <path class="cls-2" d="M114.56,1813.22s-46.29-3.66-35.22,49.46c0,0,8,10.07,24.15,0,0,0,6.88-3.59,1.67-5.55,0,0,16,.28,9.4-10.33,0,0,17.29-.56,6.25-11.45C120.79,1835.35,143.61,1825.17,114.56,1813.22Z"/>
          <polygon class="cls-3" points="107.27 1825.62 121.15 1835.13 120.68 1835.71 106.72 1826.03 107.27 1825.62"/>
          <polygon class="cls-3" points="101.1 1837.16 114.98 1846.66 114.51 1847.24 100.55 1837.57 101.1 1837.16"/>
          <polygon class="cls-3" points="90.53 1848.69 105.31 1856.98 104.91 1857.6 90.02 1849.15 90.53 1848.69"/>
        </g>
      </g>
      <g>
        <path class="cls-1" d="M250.4,1726.39v21.13s55.86,46.87,0,72l16.69,32.35,34.09-44.24s13.79-13.2,0-29.05Z"/>
        <g>
          <path class="cls-2" d="M228.41,1816.81s56.81-9.14,37,47.7c0,0-22,11.1-26-5.59,0,0-11.62,1.11-8.48-10.36,0,0-17.26,0-7.22-13.47C223.7,1835.09,206.44,1824.81,228.41,1816.81Z"/>
          <polygon class="cls-3" points="252.22 1848.52 239.54 1859.32 238.99 1858.8 251.88 1847.96 252.22 1848.52"/>
          <polygon class="cls-3" points="244.49 1838.65 231.3 1848.93 230.78 1848.39 244.17 1838.07 244.49 1838.65"/>
          <polygon class="cls-3" points="239.67 1828.7 223.99 1835.49 223.64 1834.84 239.52 1828.06 239.67 1828.7"/>
        </g>
      </g>
    </g>
    <g>
      <path class="cls-1" d="M584.28,1874.22c1.65-3.54,14.65-32.47,16.65-65.6V1726.4s-95.6,10.52-141.82,0v86s2,31.22,16.3,61.78H584.28Z"/>
      <path class="cls-1" d="M475.4,1874.22v98.2s-23.2-5.46-31.74,7.51h50.47V1874.22Z"/>
      <path class="cls-1" d="M565.5,1874.22v98.2s-23.2-5.46-31.74,7.51h50.47V1874.22Z"/>
      <path class="cls-4" d="M518.34,1731.07l7.79,17.67s50.15-2.7,74.41-19.65l.38-2.69Z"/>
      <path class="cls-4" d="M504.44,1730.44l-10.11,17.61s-25.21-5.41-34.15-17l-1.08-5.37Z"/>
      <polyline class="cls-4" points="494.33 1748.05 494.17 1785.1 511.17 1795.8 526.13 1785.1 526.13 1748.74 518.34 1731.07 504.44 1730.44"/>
      <polygon class="cls-5" points="504.44 1730.44 496.84 1743.82 500.64 1748.74 496.84 1775.27 511.17 1795.8 510.15 1730.7 504.44 1730.44"/>
      <polygon class="cls-5" points="515.86 1730.46 523.88 1743.64 520.23 1748.66 524.85 1775.09 511.17 1795.97 510.17 1730.87 515.86 1730.46"/>
      <polygon class="cls-6" points="611.52 1668.79 611.52 1660.76 600.54 1660.76 600.54 1702.49 611.52 1702.49 611.52 1668.79"/>
      <polygon class="cls-6" points="459.1 1669.99 459.1 1661.97 448.13 1661.97 448.13 1703.69 459.1 1703.69 459.1 1669.99"/>
      <ellipse class="cls-6" cx="465.18" cy="1627.47" rx="25.81" ry="23.49"/>
      <path class="cls-2" d="M459.1,1726.4V1670s-34.66-12.42,0-31.54v-31.54H600.93v32.5s41,13.39,0,27.25v59.75S519,1736.91,459.1,1726.4Z"/>
      <path class="cls-3" d="M458.75,1644.5s-11.82.85-10.52,11.79l2.82-.68s-2.25-6.67,7.7-9.06Z"/>
      <path class="cls-3" d="M613.75,1654.24s-.8-10.78-12.83-9.71l.72,2.57s7.35-2,9.86,7.12Z"/>
      <g>
        <ellipse class="cls-7" cx="485.07" cy="1641.07" rx="11.34" ry="10.32"/>
        <ellipse class="cls-8" cx="485.07" cy="1641.27" rx="7.31" ry="6.65"/>
        <ellipse cx="485.07" cy="1641.27" rx="4.65" ry="4.23"/>
        <ellipse class="cls-4" cx="488.53" cy="1638.12" rx="1.19" ry="1.08"/>
      </g>
      <g>
        <ellipse class="cls-7" cx="540.77" cy="1641.07" rx="11.17" ry="10.17"/>
        <ellipse class="cls-8" cx="540.77" cy="1641.27" rx="7.2" ry="6.55"/>
        <ellipse cx="540.77" cy="1641.27" rx="4.58" ry="4.17"/>
        <ellipse class="cls-4" cx="544.18" cy="1638.16" rx="1.17" ry="1.06"/>
      </g>
      <path class="cls-3" d="M511.37,1654.26s-5.22-.6-6.26,5.26v7s-.87,7.29,6.26,7.61c0,0,6.1.47,7-7v-7.45S518.16,1654.06,511.37,1654.26Z"/>
      <path class="cls-6" d="M496,1622.1,475.09,1619s-6.89,2.25-1.16,6.55l20.93,3.07S502.18,1626.47,496,1622.1Z"/>
      <path class="cls-6" d="M549.27,1619.16,528.41,1622s-5.78,4,1.08,6.53l20.86-2.85S556.56,1621.6,549.27,1619.16Z"/>
      <path class="cls-6" d="M588.67,1564.31H462.93s-25.63,5-23.26,25.49a29.94,29.94,0,0,0,20.41,25.49H593.42s26.58-1.3,22.07-27S588.67,1564.31,588.67,1564.31Z"/>
      <ellipse class="cls-6" cx="600.92" cy="1621.82" rx="21.37" ry="19.45"/>
      <polygon points="459.1 1812.44 600.54 1812.44 599.49 1822.23 460.23 1822.23 459.1 1812.44"/>
      <rect class="cls-10" x="504.01" y="1812.44" width="13.5" height="9.79"/>
      <g>
        <path class="cls-1" d="M459.43,1726.4v19.8s-57.31,46.22-4.36,71.31l-16.68,30.4-30.46-40.31s-16.68-14.52,0-28.39Z"/>
        <g>
          <path class="cls-2" d="M464.7,1813.23s-46.29-3.66-35.22,49.46c0,0,8,10.07,24.15,0,0,0,6.88-3.59,1.67-5.55,0,0,16,.28,9.4-10.33,0,0,17.29-.56,6.25-11.45C470.93,1835.36,493.75,1825.18,464.7,1813.23Z"/>
          <polygon class="cls-3" points="457.41 1825.63 471.29 1835.14 470.82 1835.72 456.86 1826.04 457.41 1825.63"/>
          <polygon class="cls-3" points="451.24 1837.17 465.12 1846.67 464.65 1847.25 450.69 1837.58 451.24 1837.17"/>
          <polygon class="cls-3" points="440.67 1848.7 455.45 1856.99 455.04 1857.61 440.16 1849.16 440.67 1848.7"/>
        </g>
      </g>
      <g>
        <path class="cls-1" d="M600.54,1726.4v21.13s55.86,46.87,0,72l16.69,32.35,34.09-44.24s13.79-13.2,0-29.05Z"/>
        <g>
          <path class="cls-2" d="M578.55,1816.82s56.81-9.14,37,47.7c0,0-22,11.1-26-5.59,0,0-11.62,1.11-8.48-10.36,0,0-17.26,0-7.22-13.47C573.84,1835.1,556.58,1824.82,578.55,1816.82Z"/>
          <polygon class="cls-3" points="602.36 1848.53 589.68 1859.33 589.13 1858.81 602.02 1847.97 602.36 1848.53"/>
          <polygon class="cls-3" points="594.63 1838.66 581.44 1848.94 580.92 1848.4 594.31 1838.08 594.63 1838.66"/>
          <polygon class="cls-3" points="589.81 1828.71 574.12 1835.5 573.77 1834.85 589.66 1828.07 589.81 1828.71"/>
        </g>
      </g>
      <ellipse class="cls-9" cx="520.93" cy="1696.41" rx="29" ry="4.98" transform="translate(-321.22 134.37) rotate(-11.26)"/>
    </g>
  </g>
  <g id="normal_position" data-name="normal position">
    <g id="normal_position-2" data-name="normal position">
      <g>
        <path class="cls-1" d="M233.1,874.46c1.65-3.54,14.65-32.47,16.65-65.6V726.64s-95.6,10.52-141.82,0v86s2,31.22,16.3,61.78H233.1Z"/>
        <path class="cls-1" d="M124.22,874.46v98.2s-23.2-5.46-31.74,7.51H143V874.46Z"/>
        <path class="cls-1" d="M214.32,874.46v98.2s-23.2-5.46-31.74,7.51h50.47V874.46Z"/>
        <path class="cls-4" d="M167.16,731.31,175,749s50.15-2.7,74.41-19.65l.38-2.69Z"/>
        <path class="cls-4" d="M153.26,730.68l-10.11,17.61s-25.21-5.41-34.15-17l-1.08-5.37Z"/>
        <polyline class="cls-4" points="143.15 748.29 142.99 785.34 159.99 796.04 174.95 785.34 174.95 748.98 167.16 731.31 153.26 730.68"/>
        <polygon class="cls-5" points="153.26 730.68 145.66 744.06 149.46 748.98 145.66 775.51 159.99 796.04 158.97 730.94 153.26 730.68"/>
        <polygon class="cls-5" points="164.68 730.7 172.7 743.88 169.05 748.9 173.67 775.33 159.99 796.21 158.99 731.11 164.68 730.7"/>
        <g>
          <polygon class="cls-6" points="260.34 669.03 260.34 661 249.36 661 249.36 702.73 260.34 702.73 260.34 669.03"/>
          <polygon class="cls-6" points="107.92 670.23 107.92 662.21 96.95 662.21 96.95 703.93 107.92 703.93 107.92 670.23"/>
          <ellipse class="cls-6" cx="114" cy="627.71" rx="25.81" ry="23.49"/>
          <path class="cls-2" d="M107.92,726.64V670.23s-34.66-12.42,0-31.54V607.15H249.75v32.5s41,13.39,0,27.25v59.75S167.8,737.15,107.92,726.64Z"/>
          <path class="cls-3" d="M107.57,644.74s-11.82.85-10.52,11.79l2.82-.68s-2.25-6.67,7.7-9.06Z"/>
          <path class="cls-3" d="M262.57,654.48s-.8-10.78-12.83-9.71l.72,2.57s7.35-2,9.86,7.12Z"/>
          <g>
            <ellipse cx="159.99" cy="702.73" rx="19.07" ry="17.35"/>
            <g>
              <ellipse class="cls-7" cx="133.89" cy="641.31" rx="11.34" ry="10.32"/>
              <ellipse class="cls-8" cx="133.89" cy="641.51" rx="7.31" ry="6.65"/>
              <ellipse cx="133.89" cy="641.51" rx="4.65" ry="4.23"/>
              <ellipse class="cls-4" cx="137.35" cy="638.36" rx="1.19" ry="1.08"/>
            </g>
            <g>
              <ellipse class="cls-7" cx="189.59" cy="641.31" rx="11.17" ry="10.17"/>
              <ellipse class="cls-8" cx="189.59" cy="641.51" rx="7.2" ry="6.55"/>
              <ellipse cx="189.59" cy="641.51" rx="4.58" ry="4.17"/>
              <ellipse class="cls-4" cx="193" cy="638.4" rx="1.17" ry="1.06"/>
            </g>
            <path class="cls-3" d="M160.19,654.5s-5.22-.6-6.26,5.26v7s-.87,7.29,6.26,7.61c0,0,6.1.47,7-7v-7.45S167,654.3,160.19,654.5Z"/>
            <path class="cls-6" d="M144.84,622.34l-20.93-3.07s-6.89,2.25-1.16,6.55l20.93,3.07S151,626.71,144.84,622.34Z"/>
            <path class="cls-6" d="M198.09,619.4l-20.86,2.84s-5.78,4,1.08,6.53l20.86-2.85S205.38,621.84,198.09,619.4Z"/>
            <path class="cls-9" d="M144.57,712.91s16.34-8.42,30.84,0a16.91,16.91,0,0,1-7.13,5.43s-6,3.39-14.68.72A18.82,18.82,0,0,1,144.57,712.91Z"/>
            <path class="cls-4" d="M143,694.89h34s-4.2-9.35-17-9.51C160,685.38,148.51,684.9,143,694.89Z"/>
          </g>
          <path class="cls-6" d="M237.49,564.55H111.75s-25.63,5-23.26,25.49a30,30,0,0,0,20.41,25.49H242.24s26.58-1.3,22.07-27S237.49,564.55,237.49,564.55Z"/>
          <ellipse class="cls-6" cx="249.74" cy="622.06" rx="21.37" ry="19.45"/>
        </g>
        <polygon points="107.92 812.68 249.36 812.68 248.31 822.47 109.05 822.47 107.92 812.68"/>
        <rect class="cls-10" x="152.83" y="812.68" width="13.5" height="9.79"/>
        <g>
          <path class="cls-1" d="M108.25,726.64v19.8s-57.31,46.22-4.36,71.31l-16.68,30.4L56.75,807.84s-16.68-14.52,0-28.39Z"/>
          <g>
            <path class="cls-2" d="M113.52,813.47s-46.29-3.66-35.22,49.46c0,0,8,10.07,24.15,0,0,0,6.88-3.59,1.67-5.55,0,0,16,.28,9.4-10.33,0,0,17.29-.56,6.25-11.45C119.75,835.6,142.57,825.42,113.52,813.47Z"/>
            <polygon class="cls-3" points="106.23 825.87 120.11 835.38 119.64 835.96 105.68 826.28 106.23 825.87"/>
            <polygon class="cls-3" points="100.06 837.41 113.94 846.91 113.47 847.49 99.51 837.82 100.06 837.41"/>
            <polygon class="cls-3" points="89.49 848.94 104.27 857.23 103.86 857.85 88.98 849.4 89.49 848.94"/>
          </g>
        </g>
        <g>
          <path class="cls-1" d="M249.36,726.64v21.13s55.86,46.87,0,72l16.69,32.35,34.09-44.24s13.79-13.2,0-29Z"/>
          <g>
            <path class="cls-2" d="M227.37,817.06s56.81-9.14,37,47.7c0,0-22,11.1-26-5.59,0,0-11.62,1.11-8.48-10.36,0,0-17.26,0-7.22-13.47C222.66,835.34,205.4,825.06,227.37,817.06Z"/>
            <polygon class="cls-3" points="251.18 848.77 238.5 859.57 237.95 859.05 250.84 848.21 251.18 848.77"/>
            <polygon class="cls-3" points="243.45 838.9 230.26 849.18 229.74 848.64 243.13 838.32 243.45 838.9"/>
            <polygon class="cls-3" points="238.63 828.95 222.94 835.74 222.59 835.09 238.48 828.31 238.63 828.95"/>
          </g>
        </g>
      </g>
    </g>
  </g>
  <g id="gang">
    <g id="trin_5" data-name="trin 5">
      <g>
        <path class="cls-1" d="M226.86,373.86c1.65-3.54,14.65-32.47,16.65-65.6V226s-95.6,10.52-141.82,0v86s2,31.22,16.3,61.78H226.86Z"/>
        <path class="cls-4" d="M160.92,230.71l7.79,17.67s50.15-2.7,74.41-19.65l.38-2.69Z"/>
        <path class="cls-4" d="M147,230.08l-10.11,17.61s-25.21-5.41-34.15-17l-1.08-5.37Z"/>
        <polyline class="cls-4" points="136.91 247.69 136.75 284.74 153.75 295.44 168.72 284.74 168.72 248.38 160.93 230.71 147.03 230.08"/>
        <polygon class="cls-5" points="147.03 230.08 139.43 243.46 143.22 248.38 139.43 274.91 153.75 295.44 152.74 230.34 147.03 230.08"/>
        <polygon class="cls-5" points="158.44 230.1 166.47 243.28 162.81 248.3 167.44 274.73 153.75 295.61 152.75 230.51 158.44 230.1"/>
        <g>
          <polygon class="cls-6" points="254.1 168.43 254.1 160.4 243.13 160.4 243.13 202.13 254.1 202.13 254.1 168.43"/>
          <polygon class="cls-6" points="101.69 169.63 101.69 161.61 90.72 161.61 90.72 203.33 101.69 203.33 101.69 169.63"/>
          <ellipse class="cls-6" cx="107.76" cy="127.11" rx="25.81" ry="23.49"/>
          <path class="cls-2" d="M101.68,226V169.63s-34.66-12.42,0-31.54V106.55H243.51v32.5s41,13.39,0,27.25v59.75S161.56,236.55,101.68,226Z"/>
          <path class="cls-3" d="M101.33,144.14s-11.82.85-10.52,11.79l2.82-.68s-2.25-6.67,7.7-9.06Z"/>
          <path class="cls-3" d="M256.33,153.88s-.8-10.78-12.83-9.71l.72,2.57s7.35-2,9.86,7.12Z"/>
          <g>
            <ellipse cx="153.75" cy="202.13" rx="19.07" ry="17.35"/>
            <g>
              <ellipse class="cls-7" cx="127.65" cy="140.71" rx="11.34" ry="10.32"/>
              <ellipse class="cls-8" cx="127.65" cy="140.91" rx="7.31" ry="6.65"/>
              <ellipse cx="127.65" cy="140.91" rx="4.65" ry="4.23"/>
              <ellipse class="cls-4" cx="131.11" cy="137.76" rx="1.19" ry="1.08"/>
            </g>
            <g>
              <ellipse class="cls-7" cx="183.35" cy="140.71" rx="11.17" ry="10.17"/>
              <ellipse class="cls-8" cx="183.35" cy="140.91" rx="7.2" ry="6.55"/>
              <ellipse cx="183.35" cy="140.91" rx="4.58" ry="4.17"/>
              <ellipse class="cls-4" cx="186.76" cy="137.8" rx="1.17" ry="1.06"/>
            </g>
            <path class="cls-3" d="M154,153.9s-5.22-.6-6.26,5.26v7s-.87,7.29,6.26,7.61c0,0,6.1.47,7-7v-7.45S160.74,153.7,154,153.9Z"/>
            <path class="cls-6" d="M138.6,121.74l-20.93-3.07s-6.89,2.25-1.16,6.55l20.93,3.07S144.76,126.11,138.6,121.74Z"/>
            <path class="cls-6" d="M191.85,118.8,171,121.64s-5.78,4,1.08,6.53l20.86-2.85S199.14,121.24,191.85,118.8Z"/>
            <path class="cls-9" d="M138.33,212.31s16.34-8.42,30.84,0a17,17,0,0,1-7.13,5.43s-6,3.39-14.68.72A18.82,18.82,0,0,1,138.33,212.31Z"/>
            <path class="cls-4" d="M136.75,194.29h34s-4.2-9.35-17-9.51C153.75,184.78,142.27,184.3,136.75,194.29Z"/>
          </g>
          <path class="cls-6" d="M231.25,64H105.51S79.88,69,82.25,89.44a30,30,0,0,0,20.41,25.49H236s26.58-1.3,22.07-27S231.25,64,231.25,64Z"/>
          <ellipse class="cls-6" cx="243.5" cy="121.46" rx="21.37" ry="19.45"/>
        </g>
        <polygon points="101.69 312.08 243.13 312.08 242.07 321.87 102.81 321.87 101.69 312.08"/>
        <rect class="cls-10" x="146.59" y="312.08" width="13.5" height="9.79"/>
        <g>
          <path class="cls-1" d="M102,226v19.8s-57.31,46.22-4.36,71.31L81,347.55,50.51,307.24s-16.68-14.52,0-28.39Z"/>
          <g>
            <path class="cls-2" d="M107.28,312.87S61,309.21,72.06,362.33c0,0,8,10.07,24.15,0,0,0,6.88-3.59,1.67-5.55,0,0,16,.28,9.4-10.33,0,0,17.29-.56,6.25-11.45C113.51,335,136.33,324.82,107.28,312.87Z"/>
            <polygon class="cls-3" points="100 325.27 113.88 334.78 113.41 335.36 99.44 325.68 100 325.27"/>
            <polygon class="cls-3" points="93.83 336.81 107.7 346.31 107.23 346.89 93.28 337.22 93.83 336.81"/>
            <polygon class="cls-3" points="83.25 348.34 98.03 356.63 97.63 357.25 82.75 348.8 83.25 348.34"/>
          </g>
        </g>
        <g>
          <path class="cls-1" d="M243.12,226v21.13s55.86,46.87,0,72l16.69,32.35,34.09-44.24s13.79-13.2,0-29Z"/>
          <g>
            <path class="cls-2" d="M221.13,316.46s56.81-9.14,37,47.7c0,0-22,11.1-26-5.59,0,0-11.62,1.11-8.48-10.36,0,0-17.26,0-7.22-13.47C216.42,334.74,199.16,324.46,221.13,316.46Z"/>
            <polygon class="cls-3" points="244.94 348.17 232.26 358.97 231.72 358.45 244.6 347.61 244.94 348.17"/>
            <polygon class="cls-3" points="237.22 338.3 224.03 348.58 223.5 348.04 236.9 337.72 237.22 338.3"/>
            <polygon class="cls-3" points="232.4 328.35 216.71 335.14 216.35 334.49 232.25 327.71 232.4 328.35"/>
          </g>
        </g>
        <path class="cls-1" d="M117.51,373.55l9,50,12.91,45.37s-13.91.63-16.91,10.63h33.3l4.7-5-19-54-5-47Z"/>
        <path class="cls-1" d="M206.83,373.86l-4.32,49.69,2,47a16.1,16.1,0,0,0-19-2l-4,3,35,8-1-53,11-53Z"/>
      </g>
    </g>
    <g id="trin_4" data-name="trin 4">
      <g>
        <path class="cls-1" d="M583.34,375.21C585,371.67,598,342.74,600,309.61V227.39s-95.6,10.52-141.82,0v86s2,31.22,16.3,61.78H583.34Z"/>
        <path class="cls-4" d="M517.4,232.06l7.79,17.67s50.15-2.7,74.41-19.65l.38-2.69Z"/>
        <path class="cls-4" d="M503.5,231.43,493.39,249s-25.21-5.41-34.15-17l-1.08-5.37Z"/>
        <polyline class="cls-4" points="493.39 249.04 493.23 286.09 510.23 296.79 525.19 286.09 525.19 249.73 517.4 232.06 503.5 231.43"/>
        <polygon class="cls-5" points="503.5 231.43 495.9 244.81 499.7 249.73 495.9 276.26 510.23 296.79 509.21 231.69 503.5 231.43"/>
        <polygon class="cls-5" points="514.92 231.45 522.94 244.63 519.29 249.65 523.91 276.08 510.23 296.96 509.23 231.86 514.92 231.45"/>
        <g>
          <polygon class="cls-6" points="610.58 169.78 610.58 161.75 599.6 161.75 599.6 203.48 610.58 203.48 610.58 169.78"/>
          <polygon class="cls-6" points="458.16 170.98 458.16 162.96 447.19 162.96 447.19 204.68 458.16 204.68 458.16 170.98"/>
          <ellipse class="cls-6" cx="464.24" cy="128.46" rx="25.81" ry="23.49"/>
          <path class="cls-2" d="M458.16,227.39V171s-34.66-12.42,0-31.54V107.9H600v32.5s41,13.39,0,27.25V227.4S518,237.9,458.16,227.39Z"/>
          <path class="cls-3" d="M457.81,145.49s-11.83.85-10.52,11.79l2.82-.68s-2.25-6.67,7.7-9.06Z"/>
          <path class="cls-3" d="M612.81,155.23s-.8-10.78-12.83-9.71l.72,2.57s7.35-2,9.86,7.12Z"/>
          <g>
            <ellipse cx="510.23" cy="203.48" rx="19.07" ry="17.35"/>
            <g>
              <ellipse class="cls-7" cx="484.13" cy="142.06" rx="11.34" ry="10.32"/>
              <ellipse class="cls-8" cx="484.13" cy="142.26" rx="7.31" ry="6.65"/>
              <ellipse cx="484.13" cy="142.26" rx="4.65" ry="4.23"/>
              <ellipse class="cls-4" cx="487.59" cy="139.11" rx="1.19" ry="1.08"/>
            </g>
            <g>
              <ellipse class="cls-7" cx="539.83" cy="142.06" rx="11.17" ry="10.17"/>
              <ellipse class="cls-8" cx="539.83" cy="142.26" rx="7.2" ry="6.55"/>
              <ellipse cx="539.83" cy="142.26" rx="4.58" ry="4.17"/>
              <ellipse class="cls-4" cx="543.24" cy="139.15" rx="1.17" ry="1.06"/>
            </g>
            <path class="cls-3" d="M510.43,155.25s-5.22-.6-6.26,5.26v7s-.87,7.29,6.26,7.61c0,0,6.1.47,7-7v-7.45S517.22,155.05,510.43,155.25Z"/>
            <path class="cls-6" d="M495.08,123.09,474.15,120s-6.89,2.25-1.16,6.55l20.93,3.07S501.24,127.46,495.08,123.09Z"/>
            <path class="cls-6" d="M548.33,120.15,527.47,123s-5.78,4,1.08,6.53l20.86-2.85S555.62,122.59,548.33,120.15Z"/>
            <path class="cls-9" d="M494.81,213.66s16.34-8.42,30.84,0a17,17,0,0,1-7.13,5.43s-6,3.39-14.68.72A18.73,18.73,0,0,1,494.81,213.66Z"/>
            <path class="cls-4" d="M493.23,195.64h34s-4.2-9.35-17-9.51C510.23,186.13,498.75,185.65,493.23,195.64Z"/>
          </g>
          <path class="cls-6" d="M587.73,65.3H462s-25.63,5-23.26,25.49a29.92,29.92,0,0,0,20.41,25.49H592.48s26.58-1.3,22.07-27S587.73,65.3,587.73,65.3Z"/>
          <ellipse class="cls-6" cx="599.98" cy="122.81" rx="21.37" ry="19.45"/>
        </g>
        <polygon points="458.16 313.43 599.6 313.43 598.55 323.22 459.29 323.22 458.16 313.43"/>
        <rect class="cls-10" x="503.07" y="313.43" width="13.5" height="9.79"/>
        <g>
          <path class="cls-1" d="M458.49,227.39v19.8s-57.31,46.22-4.36,71.31l-16.68,30.4L407,308.59s-16.68-14.52,0-28.39Z"/>
          <g>
            <path class="cls-2" d="M463.76,314.22s-46.29-3.66-35.22,49.46c0,0,8,10.07,24.15,0,0,0,6.88-3.59,1.67-5.55,0,0,16.05.28,9.4-10.33,0,0,17.29-.56,6.25-11.45C470,336.35,492.81,326.17,463.76,314.22Z"/>
            <polygon class="cls-3" points="456.47 326.62 470.35 336.13 469.88 336.71 455.92 327.03 456.47 326.62"/>
            <polygon class="cls-3" points="450.3 338.16 464.18 347.66 463.71 348.24 449.75 338.57 450.3 338.16"/>
            <polygon class="cls-3" points="439.73 349.69 454.51 357.98 454.11 358.6 439.22 350.15 439.73 349.69"/>
          </g>
        </g>
        <g>
          <path class="cls-1" d="M599.6,227.39v21.13s55.86,46.87,0,72l16.69,32.35,34.09-44.24s13.79-13.2,0-29.05Z"/>
          <g>
            <path class="cls-2" d="M577.61,317.81s56.81-9.14,37,47.7c0,0-22,11.1-26-5.59,0,0-11.62,1.11-8.48-10.36,0,0-17.26,0-7.22-13.47C572.9,336.09,555.64,325.81,577.61,317.81Z"/>
            <polygon class="cls-3" points="601.42 349.52 588.74 360.32 588.19 359.8 601.08 348.96 601.42 349.52"/>
            <polygon class="cls-3" points="593.69 339.65 580.5 349.93 579.98 349.39 593.37 339.07 593.69 339.65"/>
            <polygon class="cls-3" points="588.87 329.7 573.19 336.49 572.84 335.84 588.72 329.06 588.87 329.7"/>
          </g>
        </g>
        <path class="cls-1" d="M474,374.9l4.53,43.33,19,43.31S477,461.9,474,480.9h14.33l28.67-16-22.18-46.35L493,374.9Z"/>
        <path class="cls-1" d="M566,374.9l-14,47-1,50.45s-22-5.45-34,8.55h49l.47-53,16.53-53Z"/>
      </g>
    </g>
    <g id="trin_3" data-name="trin 3">
      <g>
        <path class="cls-1" d="M932.28,375c1.65-3.54,14.65-32.47,16.65-65.6V227.22s-95.6,10.52-141.82,0v86s2,31.22,16.3,61.78H932.28Z"/>
        <path class="cls-4" d="M866.34,231.89l7.79,17.67s50.15-2.7,74.41-19.65l.38-2.69Z"/>
        <path class="cls-4" d="M852.44,231.26l-10.11,17.61s-25.21-5.41-34.15-17l-1.08-5.37Z"/>
        <polyline class="cls-4" points="842.33 248.87 842.17 285.92 859.17 296.62 874.13 285.92 874.13 249.56 866.34 231.89 852.44 231.26"/>
        <polygon class="cls-5" points="852.44 231.26 844.84 244.64 848.64 249.56 844.84 276.09 859.17 296.62 858.15 231.52 852.44 231.26"/>
        <polygon class="cls-5" points="863.86 231.28 871.88 244.46 868.23 249.48 872.85 275.91 859.17 296.79 858.17 231.69 863.86 231.28"/>
        <g>
          <polygon class="cls-6" points="959.52 169.61 959.52 161.58 948.54 161.58 948.54 203.31 959.52 203.31 959.52 169.61"/>
          <polygon class="cls-6" points="807.1 170.81 807.1 162.79 796.13 162.79 796.13 204.51 807.1 204.51 807.1 170.81"/>
          <ellipse class="cls-6" cx="813.18" cy="128.29" rx="25.81" ry="23.49"/>
          <path class="cls-2" d="M807.1,227.22V170.81s-34.66-12.42,0-31.54V107.73H948.93v32.5s41,13.39,0,27.25v59.75S867,237.73,807.1,227.22Z"/>
          <path class="cls-3" d="M806.75,145.32s-11.83.85-10.52,11.79l2.82-.68s-2.25-6.67,7.7-9.06Z"/>
          <path class="cls-3" d="M961.75,155.06s-.8-10.78-12.83-9.71l.72,2.57s7.35-2,9.86,7.12Z"/>
          <g>
            <ellipse cx="859.17" cy="203.31" rx="19.07" ry="17.35"/>
            <g>
              <ellipse class="cls-7" cx="833.07" cy="141.89" rx="11.34" ry="10.32"/>
              <ellipse class="cls-8" cx="833.07" cy="142.09" rx="7.31" ry="6.65"/>
              <ellipse cx="833.07" cy="142.09" rx="4.65" ry="4.23"/>
              <ellipse class="cls-4" cx="836.53" cy="138.94" rx="1.19" ry="1.08"/>
            </g>
            <g>
              <ellipse class="cls-7" cx="888.77" cy="141.89" rx="11.17" ry="10.17"/>
              <ellipse class="cls-8" cx="888.77" cy="142.09" rx="7.2" ry="6.55"/>
              <ellipse cx="888.77" cy="142.09" rx="4.58" ry="4.17"/>
              <ellipse class="cls-4" cx="892.18" cy="138.98" rx="1.17" ry="1.06"/>
            </g>
            <path class="cls-3" d="M859.37,155.08s-5.22-.6-6.26,5.26v7s-.87,7.29,6.26,7.61c0,0,6.1.47,7-7V160.5S866.16,154.88,859.37,155.08Z"/>
            <path class="cls-6" d="M844,122.92l-20.93-3.07s-6.89,2.25-1.16,6.55l20.93,3.07S850.18,127.29,844,122.92Z"/>
            <path class="cls-6" d="M897.27,120l-20.86,2.84s-5.78,4,1.08,6.53l20.86-2.85S904.56,122.42,897.27,120Z"/>
            <path class="cls-9" d="M843.75,213.49s16.34-8.42,30.84,0a17,17,0,0,1-7.13,5.43s-6,3.39-14.68.72A18.77,18.77,0,0,1,843.75,213.49Z"/>
            <path class="cls-4" d="M842.17,195.47h34s-4.2-9.35-17-9.51C859.17,186,847.69,185.48,842.17,195.47Z"/>
          </g>
          <path class="cls-6" d="M936.67,65.13H810.93s-25.63,5-23.26,25.49a29.92,29.92,0,0,0,20.41,25.49H941.42s26.58-1.3,22.07-27S936.67,65.13,936.67,65.13Z"/>
          <ellipse class="cls-6" cx="948.92" cy="122.64" rx="21.37" ry="19.45"/>
        </g>
        <polygon points="807.1 313.26 948.54 313.26 947.49 323.05 808.23 323.05 807.1 313.26"/>
        <rect class="cls-10" x="852.01" y="313.26" width="13.5" height="9.79"/>
        <g>
          <path class="cls-1" d="M807.43,227.22V247s-57.31,46.22-4.36,71.31l-16.68,30.4-30.46-40.31s-16.68-14.52,0-28.39Z"/>
          <g>
            <path class="cls-2" d="M812.7,314.05s-46.29-3.66-35.22,49.46c0,0,8,10.07,24.15,0,0,0,6.88-3.59,1.67-5.55,0,0,16,.28,9.4-10.33,0,0,17.29-.56,6.25-11.45C818.93,336.18,841.75,326,812.7,314.05Z"/>
            <polygon class="cls-3" points="805.41 326.45 819.29 335.96 818.82 336.54 804.86 326.86 805.41 326.45"/>
            <polygon class="cls-3" points="799.25 337.99 813.12 347.49 812.65 348.07 798.69 338.4 799.25 337.99"/>
            <polygon class="cls-3" points="788.67 349.52 803.45 357.81 803.05 358.43 788.16 349.98 788.67 349.52"/>
          </g>
        </g>
        <g>
          <path class="cls-1" d="M948.54,227.22v21.13s55.86,46.87,0,72l16.69,32.35,34.09-44.24s13.79-13.2,0-29Z"/>
          <g>
            <path class="cls-2" d="M926.55,317.64s56.81-9.14,37,47.7c0,0-22,11.1-26-5.59,0,0-11.62,1.11-8.48-10.36,0,0-17.26,0-7.22-13.47C921.84,335.92,904.58,325.64,926.55,317.64Z"/>
            <polygon class="cls-3" points="950.36 349.35 937.68 360.15 937.13 359.63 950.02 348.79 950.36 349.35"/>
            <polygon class="cls-3" points="942.63 339.48 929.44 349.76 928.92 349.22 942.31 338.9 942.63 339.48"/>
            <polygon class="cls-3" points="937.81 329.53 922.13 336.32 921.78 335.67 937.66 328.89 937.81 329.53"/>
          </g>
        </g>
        <path class="cls-1" d="M822.93,374.73l-11,47,21,36s-21,6-16,23l36-22-20-39,9-45Z"/>
        <path class="cls-1" d="M914.93,374.73l-7,53v44.64s-26-6.64-34,8.36h47.84l.16-53,10-53Z"/>
      </g>
    </g>
    <g id="trin_1" data-name="trin 1">
      <g>
        <path class="cls-1" d="M1525.46,374.9l-6,43-9,54s-9-18-27-9l27,18h15l14-62,7.33-43.69-21.33-.31"/>
        <path class="cls-1" d="M1633.81,375.21c1.64-3.54,14.67-32.47,16.64-65.6V227.39s-95.6,10.52-141.82,0v86s2,31.22,16.3,61.78h108.88Z"/>
        <path class="cls-4" d="M1567.87,232.06l7.79,17.67s50.15-2.7,74.41-19.65l.38-2.69Z"/>
        <path class="cls-4" d="M1554,231.43,1543.86,249s-25.21-5.41-34.15-17l-1.08-5.37Z"/>
        <polyline class="cls-4" points="1543.86 249.04 1543.7 286.09 1560.7 296.79 1575.66 286.09 1575.66 249.73 1567.87 232.06 1553.97 231.43"/>
        <polygon class="cls-5" points="1553.97 231.43 1546.37 244.81 1550.17 249.73 1546.37 276.26 1560.7 296.79 1559.68 231.69 1553.97 231.43"/>
        <polygon class="cls-5" points="1565.39 231.45 1573.41 244.63 1569.76 249.65 1574.38 276.08 1560.7 296.96 1559.7 231.86 1565.39 231.45"/>
        <g>
          <polygon class="cls-6" points="1661.05 169.78 1661.05 161.75 1650.07 161.75 1650.07 203.48 1661.05 203.48 1661.05 169.78"/>
          <polygon class="cls-6" points="1508.63 170.98 1508.63 162.96 1497.66 162.96 1497.66 204.68 1508.63 204.68 1508.63 170.98"/>
          <ellipse class="cls-6" cx="1514.71" cy="128.46" rx="25.81" ry="23.49"/>
          <path class="cls-2" d="M1508.63,227.39V171s-34.66-12.42,0-31.54V107.9h141.83v32.5s41,13.39,0,27.25V227.4S1568.51,237.9,1508.63,227.39Z"/>
          <path class="cls-3" d="M1508.28,145.49s-11.83.85-10.52,11.79l2.82-.68s-2.25-6.67,7.7-9.06Z"/>
          <path class="cls-3" d="M1663.28,155.23s-.8-10.78-12.83-9.71l.72,2.57s7.35-2,9.86,7.12Z"/>
          <g>
            <ellipse cx="1560.7" cy="203.48" rx="19.07" ry="17.35"/>
            <g>
              <ellipse class="cls-7" cx="1534.6" cy="142.06" rx="11.34" ry="10.32"/>
              <ellipse class="cls-8" cx="1534.6" cy="142.26" rx="7.31" ry="6.65"/>
              <ellipse cx="1534.6" cy="142.26" rx="4.65" ry="4.23"/>
              <ellipse class="cls-4" cx="1538.06" cy="139.11" rx="1.19" ry="1.08"/>
            </g>
            <g>
              <ellipse class="cls-7" cx="1590.3" cy="142.06" rx="11.17" ry="10.17"/>
              <ellipse class="cls-8" cx="1590.3" cy="142.26" rx="7.2" ry="6.55"/>
              <ellipse cx="1590.3" cy="142.26" rx="4.58" ry="4.17"/>
              <ellipse class="cls-4" cx="1593.71" cy="139.15" rx="1.17" ry="1.06"/>
            </g>
            <path class="cls-3" d="M1560.9,155.25s-5.22-.6-6.26,5.26v7s-.87,7.29,6.26,7.61c0,0,6.1.47,7-7v-7.45S1567.69,155.05,1560.9,155.25Z"/>
            <path class="cls-6" d="M1545.55,123.09,1524.62,120s-6.89,2.25-1.16,6.55l20.93,3.07S1551.71,127.46,1545.55,123.09Z"/>
            <path class="cls-6" d="M1598.8,120.15,1577.94,123s-5.78,4,1.08,6.53l20.86-2.85S1606.09,122.59,1598.8,120.15Z"/>
            <path class="cls-9" d="M1545.28,213.66s16.34-8.42,30.84,0a17,17,0,0,1-7.13,5.43s-6,3.39-14.68.72A18.82,18.82,0,0,1,1545.28,213.66Z"/>
            <path class="cls-4" d="M1543.7,195.64h34s-4.2-9.35-17-9.51C1560.7,186.13,1549.22,185.65,1543.7,195.64Z"/>
          </g>
          <path class="cls-6" d="M1638.2,65.3H1512.46s-25.63,5-23.26,25.49a30,30,0,0,0,20.41,25.49H1643s26.58-1.3,22.07-27S1638.2,65.3,1638.2,65.3Z"/>
          <ellipse class="cls-6" cx="1650.45" cy="122.81" rx="21.37" ry="19.45"/>
        </g>
        <polygon points="1508.63 313.43 1650.07 313.43 1649.02 323.22 1509.76 323.22 1508.63 313.43"/>
        <rect class="cls-10" x="1553.54" y="313.43" width="13.5" height="9.79"/>
        <g>
          <path class="cls-1" d="M1509,227.39v19.8s-57.31,46.22-4.36,71.31l-16.68,30.4-30.46-40.31s-16.68-14.52,0-28.39Z"/>
          <g>
            <path class="cls-2" d="M1514.23,314.22s-46.29-3.66-35.22,49.46c0,0,8,10.07,24.15,0,0,0,6.88-3.59,1.67-5.55,0,0,16.05.28,9.4-10.33,0,0,17.29-.56,6.25-11.45C1520.46,336.35,1543.28,326.17,1514.23,314.22Z"/>
            <polygon class="cls-3" points="1506.94 326.62 1520.82 336.13 1520.35 336.71 1506.39 327.03 1506.94 326.62"/>
            <polygon class="cls-3" points="1500.78 338.16 1514.65 347.66 1514.18 348.24 1500.22 338.57 1500.78 338.16"/>
            <polygon class="cls-3" points="1490.2 349.69 1504.98 357.98 1504.58 358.6 1489.69 350.15 1490.2 349.69"/>
          </g>
        </g>
        <g>
          <path class="cls-1" d="M1650.07,227.39v21.13s55.86,46.87,0,72l16.69,32.35,34.09-44.24s13.79-13.2,0-29.05Z"/>
          <g>
            <path class="cls-2" d="M1628.08,317.81s56.81-9.14,37,47.7c0,0-22,11.1-26-5.59,0,0-11.62,1.11-8.48-10.36,0,0-17.26,0-7.22-13.47C1623.37,336.09,1606.11,325.81,1628.08,317.81Z"/>
            <polygon class="cls-3" points="1651.89 349.52 1639.21 360.32 1638.66 359.8 1651.55 348.96 1651.89 349.52"/>
            <polygon class="cls-3" points="1644.16 339.65 1630.97 349.93 1630.45 349.39 1643.84 339.07 1644.16 339.65"/>
            <polygon class="cls-3" points="1639.34 329.7 1623.65 336.49 1623.31 335.84 1639.19 329.06 1639.34 329.7"/>
          </g>
        </g>
        <path class="cls-1" d="M1633.46,374.9l6,53,8,33,5,11-27,9h-14s3-11,14-12l8-4-8-37-9.3-53Z"/>
      </g>
    </g>
    <g id="trin_2" data-name="trin 2">
      <g>
        <path class="cls-1" d="M1283,374.54c1.64-3.54,14.67-32.47,16.64-65.6V226.72s-95.6,10.52-141.82,0v86s2,31.22,16.3,61.78H1283Z"/>
        <path class="cls-4" d="M1217.09,231.39l7.79,17.67s50.15-2.7,74.41-19.65l.38-2.69Z"/>
        <path class="cls-4" d="M1203.19,230.76l-10.11,17.61s-25.21-5.41-34.15-17l-1.08-5.37Z"/>
        <polyline class="cls-4" points="1193.08 248.37 1192.92 285.42 1209.92 296.12 1224.88 285.42 1224.88 249.06 1217.09 231.39 1203.19 230.76"/>
        <polygon class="cls-5" points="1203.19 230.76 1195.59 244.14 1199.39 249.06 1195.59 275.59 1209.92 296.12 1208.9 231.02 1203.19 230.76"/>
        <polygon class="cls-5" points="1214.61 230.78 1222.63 243.96 1218.98 248.98 1223.6 275.41 1209.92 296.29 1208.92 231.19 1214.61 230.78"/>
        <g>
          <polygon class="cls-6" points="1310.27 169.11 1310.27 161.08 1299.29 161.08 1299.29 202.81 1310.27 202.81 1310.27 169.11"/>
          <polygon class="cls-6" points="1157.85 170.31 1157.85 162.29 1146.88 162.29 1146.88 204.01 1157.85 204.01 1157.85 170.31"/>
          <ellipse class="cls-6" cx="1163.93" cy="127.79" rx="25.81" ry="23.49"/>
          <path class="cls-2" d="M1157.85,226.72V170.31s-34.66-12.42,0-31.54V107.23h141.83v32.5s41,13.39,0,27.25v59.75S1217.73,237.23,1157.85,226.72Z"/>
          <path class="cls-3" d="M1157.5,144.82s-11.83.85-10.52,11.79l2.82-.68s-2.25-6.67,7.7-9.06Z"/>
          <path class="cls-3" d="M1312.5,154.56s-.8-10.78-12.83-9.71l.72,2.57s7.35-2,9.86,7.12Z"/>
          <g>
            <ellipse cx="1209.92" cy="202.81" rx="19.07" ry="17.35"/>
            <g>
              <ellipse class="cls-7" cx="1183.82" cy="141.39" rx="11.34" ry="10.32"/>
              <ellipse class="cls-8" cx="1183.82" cy="141.59" rx="7.31" ry="6.65"/>
              <ellipse cx="1183.82" cy="141.59" rx="4.65" ry="4.23"/>
              <ellipse class="cls-4" cx="1187.28" cy="138.44" rx="1.19" ry="1.08"/>
            </g>
            <g>
              <ellipse class="cls-7" cx="1239.52" cy="141.39" rx="11.17" ry="10.17"/>
              <ellipse class="cls-8" cx="1239.52" cy="141.59" rx="7.2" ry="6.55"/>
              <ellipse cx="1239.52" cy="141.59" rx="4.58" ry="4.17"/>
              <ellipse class="cls-4" cx="1242.93" cy="138.48" rx="1.17" ry="1.06"/>
            </g>
            <path class="cls-3" d="M1210.12,154.58s-5.22-.6-6.26,5.26v7s-.87,7.29,6.26,7.61c0,0,6.1.47,7-7V160S1216.91,154.38,1210.12,154.58Z"/>
            <path class="cls-6" d="M1194.77,122.42l-20.93-3.07s-6.89,2.25-1.16,6.55l20.93,3.07S1200.93,126.79,1194.77,122.42Z"/>
            <path class="cls-6" d="M1248,119.48l-20.86,2.84s-5.78,4,1.08,6.53L1249.1,126S1255.31,121.92,1248,119.48Z"/>
            <path class="cls-9" d="M1194.5,213s16.34-8.42,30.84,0a17.05,17.05,0,0,1-7.13,5.43s-6,3.39-14.68.72A18.77,18.77,0,0,1,1194.5,213Z"/>
            <path class="cls-4" d="M1192.92,195h34s-4.2-9.35-17-9.51C1209.92,185.46,1198.44,185,1192.92,195Z"/>
          </g>
          <path class="cls-6" d="M1287.42,64.63H1161.68s-25.63,5-23.26,25.49a30,30,0,0,0,20.41,25.49h133.39s26.58-1.3,22.07-27S1287.42,64.63,1287.42,64.63Z"/>
          <ellipse class="cls-6" cx="1299.67" cy="122.14" rx="21.37" ry="19.45"/>
        </g>
        <polygon points="1157.85 312.76 1299.29 312.76 1298.24 322.55 1158.98 322.55 1157.85 312.76"/>
        <rect class="cls-10" x="1202.76" y="312.76" width="13.5" height="9.79"/>
        <g>
          <path class="cls-1" d="M1158.18,226.72v19.8s-57.31,46.22-4.36,71.31l-16.68,30.4-30.46-40.31s-16.68-14.52,0-28.39Z"/>
          <g>
            <path class="cls-2" d="M1163.45,313.55s-46.29-3.66-35.22,49.46c0,0,8,10.07,24.15,0,0,0,6.88-3.59,1.67-5.55,0,0,16,.28,9.4-10.33,0,0,17.29-.56,6.25-11.45C1169.68,335.68,1192.5,325.5,1163.45,313.55Z"/>
            <polygon class="cls-3" points="1156.16 325.95 1170.04 335.46 1169.57 336.04 1155.61 326.36 1156.16 325.95"/>
            <polygon class="cls-3" points="1150 337.49 1163.87 346.99 1163.4 347.57 1149.44 337.9 1150 337.49"/>
            <polygon class="cls-3" points="1139.42 349.02 1154.2 357.31 1153.8 357.93 1138.91 349.48 1139.42 349.02"/>
          </g>
        </g>
        <g>
          <path class="cls-1" d="M1299.29,226.72v21.13s55.86,46.87,0,72L1316,352.2,1350.07,308s13.79-13.2,0-29Z"/>
          <g>
            <path class="cls-2" d="M1277.3,317.14s56.81-9.14,37,47.7c0,0-22,11.1-26-5.59,0,0-11.62,1.11-8.48-10.36,0,0-17.26,0-7.22-13.47C1272.59,335.42,1255.33,325.14,1277.3,317.14Z"/>
            <polygon class="cls-3" points="1301.11 348.85 1288.43 359.65 1287.88 359.13 1300.77 348.29 1301.11 348.85"/>
            <polygon class="cls-3" points="1293.38 338.98 1280.19 349.26 1279.67 348.72 1293.06 338.4 1293.38 338.98"/>
            <polygon class="cls-3" points="1288.56 329.03 1272.87 335.82 1272.53 335.17 1288.41 328.39 1288.56 329.03"/>
          </g>
        </g>
        <path class="cls-1" d="M1173.68,374.23l-16,47-1,41s-24-5-30,18l47-7v-46l19-53Z"/>
        <path class="cls-1" d="M1282.68,374.23l-4.38,53.16,9.58,40.5.8,12.34H1244.1s4.58-14,28.58-14l-11-39,4-53Z"/>
      </g>
    </g>
  </g>
</svg>
